<svg xmlns="http://www.w3.org/2000/svg" width="720" height="570" viewBox="0 0 720 570"><title>An illustrative optimization path on a contour landscape</title>
  <g stroke="#d7dde7" stroke-width=".8"><path d="M88 83v404"/><path d="M132 83v404"/><path d="M176 83v404"/><path d="M220 83v404"/><path d="M264 83v404"/><path d="M308 83v404"/><path d="M352 83v404"/><path d="M396 83v404"/><path d="M440 83v404"/><path d="M484 83v404"/><path d="M528 83v404"/><path d="M572 83v404"/><path d="M616 83v404"/><path d="M88 83h528"/><path d="M88 127h528"/><path d="M88 171h528"/><path d="M88 215h528"/><path d="M88 259h528"/><path d="M88 303h528"/><path d="M88 347h528"/><path d="M88 391h528"/><path d="M88 435h528"/><path d="M88 479h528"/></g>
  <path d="M-165-35C-166-118-60-168 51-110S181-110 199 10 57 172-60 123-177 47-165-35Z" transform="translate(374 287) rotate(-25) scale(0.2 0.15400000000000003)" fill="none" stroke="#7e92b2" stroke-width="5"/><path d="M-165-35C-166-118-60-168 51-110S181-110 199 10 57 172-60 123-177 47-165-35Z" transform="translate(374 287) rotate(-25) scale(0.315 0.24255000000000002)" fill="none" stroke="#7e92b2" stroke-width="3.1746031746031744"/><path d="M-165-35C-166-118-60-168 51-110S181-110 199 10 57 172-60 123-177 47-165-35Z" transform="translate(374 287) rotate(-25) scale(0.43000000000000005 0.33110000000000006)" fill="none" stroke="#7e92b2" stroke-width="2.325581395348837"/><path d="M-165-35C-166-118-60-168 51-110S181-110 199 10 57 172-60 123-177 47-165-35Z" transform="translate(374 287) rotate(-25) scale(0.545 0.41965)" fill="none" stroke="#7e92b2" stroke-width="1.8348623853211008"/><path d="M-165-35C-166-118-60-168 51-110S181-110 199 10 57 172-60 123-177 47-165-35Z" transform="translate(374 287) rotate(-25) scale(0.66 0.5082)" fill="none" stroke="#b7c2d4" stroke-width="1.5151515151515151"/><path d="M-165-35C-166-118-60-168 51-110S181-110 199 10 57 172-60 123-177 47-165-35Z" transform="translate(374 287) rotate(-25) scale(0.7750000000000001 0.5967500000000001)" fill="none" stroke="#b7c2d4" stroke-width="1.290322580645161"/><path d="M-165-35C-166-118-60-168 51-110S181-110 199 10 57 172-60 123-177 47-165-35Z" transform="translate(374 287) rotate(-25) scale(0.8900000000000001 0.6853000000000001)" fill="none" stroke="#b7c2d4" stroke-width="1.1235955056179774"/><path d="M-165-35C-166-118-60-168 51-110S181-110 199 10 57 172-60 123-177 47-165-35Z" transform="translate(374 287) rotate(-25) scale(1.0050000000000001 0.7738500000000001)" fill="none" stroke="#b7c2d4" stroke-width="0.9950248756218905"/><path d="M-165-35C-166-118-60-168 51-110S181-110 199 10 57 172-60 123-177 47-165-35Z" transform="translate(374 287) rotate(-25) scale(1.12 0.8624)" fill="none" stroke="#b7c2d4" stroke-width="0.8928571428571428"/><path d="M-165-35C-166-118-60-168 51-110S181-110 199 10 57 172-60 123-177 47-165-35Z" transform="translate(374 287) rotate(-25) scale(1.235 0.9509500000000001)" fill="none" stroke="#b7c2d4" stroke-width="0.8097165991902834"/><path d="M-165-35C-166-118-60-168 51-110S181-110 199 10 57 172-60 123-177 47-165-35Z" transform="translate(374 287) rotate(-25) scale(1.35 1.0395)" fill="none" stroke="#b7c2d4" stroke-width="0.7407407407407407"/>
  <path d="m139 139 110 289 63-221 17 147 41-90 14 40-10-17" fill="none" stroke="#002767" stroke-width="2.3"/>
  <g fill="#ffffff" stroke="#002767" stroke-width="1.7"><circle cx="139" cy="139" r="5"/><circle cx="249" cy="428" r="5"/><circle cx="312" cy="207" r="5"/><circle cx="329" cy="354" r="5"/><circle cx="370" cy="264" r="5"/><circle cx="384" cy="304" r="4"/></g>
  <circle cx="374" cy="287" r="5" fill="#002767"/>
  <g fill="#526d98" font-family="Georgia,serif" font-style="italic" font-size="21"><text x="113" y="119">θ₀</text><text x="381" y="277">θ*</text><text x="574" y="475">θ₁</text><text x="70" y="78">θ₂</text></g>
  <g fill="none" stroke="#adbace"><path d="M66 60h30m-15-15v30M616 504h30m-15-15v30"/><path d="M473 175h94v-31"/></g>
</svg>