<svg xmlns="http://www.w3.org/2000/svg" width="720" height="570" viewBox="0 0 720 570"><title>Robot motion: a conceptual articulated arm</title>
  <g stroke="#d9dfe8" stroke-width=".8" fill="none"><path d="M70 357l270 130M70 487l270-130"/><path d="M98 357l270 130M98 487l270-130"/><path d="M126 357l270 130M126 487l270-130"/><path d="M154 357l270 130M154 487l270-130"/><path d="M182 357l270 130M182 487l270-130"/><path d="M210 357l270 130M210 487l270-130"/><path d="M238 357l270 130M238 487l270-130"/><path d="M266 357l270 130M266 487l270-130"/><path d="M294 357l270 130M294 487l270-130"/><path d="M322 357l270 130M322 487l270-130"/><path d="M350 357l270 130M350 487l270-130"/><path d="M378 357l270 130M378 487l270-130"/><path d="M406 357l270 130M406 487l270-130"/></g>
  <g fill="none" stroke="#c2cbdb" stroke-width="1">
    <path d="M125 428h425M294 500V68" stroke-dasharray="3 5"/>
    <path d="M449 185C560 211 575 309 479 351S307 367 222 312" stroke-dasharray="4 6"/>
    <path d="M334 395 278 179 461 190 473 277" stroke-width="22" opacity=".3"/>
    <path d="M334 395 278 179 461 190 473 277" stroke-dasharray="3 5"/>
    <circle cx="278" cy="179" r="18"/><circle cx="461" cy="190" r="13"/>
  </g>
  <ellipse cx="321" cy="432" rx="99" ry="30" fill="#d6dce7" opacity=".5"/>
  <path d="m254 411 54-26 58 27v32l-54 28-58-30Z" fill="#6c82a7" stroke="#446190"/>
  <path d="m254 411 54-26 58 27-54 28Z" fill="#cdd5e1" stroke="#6f85a9"/>
  <path d="m312 440 54-28v32l-54 28Z" fill="#446190"/>
  <path d="M277 388v29q32 24 64 0v-29" fill="#95a5c0" stroke="#516c97"/>
  <ellipse cx="309" cy="388" rx="32" ry="15" fill="#ced5e2" stroke="#6f85a9"/>
  <path d="m293 383-7-56 36-3 9 63q-15 11-38-4" fill="#28497f" stroke="#183b75"/>
  <path d="m294 355-91-137 38-28 89 142Z" fill="#bbc5d6" stroke="#667da4"/>
  <path d="m294 355 11 8 36-28-11-3Z" fill="#415e8d"/>
  <path d="m241 190 100 145-11-3-89-142Z" fill="#778cae"/>
  <path d="m224 225 14-10 70 108-14 11Z" fill="#dfe4ec"/>
  <path d="m222 220 155-72-13-39-161 76Z" fill="#d9dfe8" stroke="#6e84a8"/>
  <path d="m222 220 10 9 155-72-10-9Z" fill="#5c759e"/>
  <path d="m377 148 10 9-11-40-12-8Z" fill="#8c9ebb"/>
  <path d="m244 191 104-49" stroke="#a3b1c8" stroke-width="2"/>
  <path d="m361 148 58 72 28-22-61-70Z" fill="#b9c4d5" stroke="#647ca3"/>
  <path d="m419 220 8 5 29-24-9-3Z" fill="#3e5c8c"/>
  <path d="m386 128 8 6 62 67-9-3Z" fill="#7a8fb0"/>
  <g transform="translate(314 342)"><circle r="28" fill="#1b3e77"/><circle cx="-4" cy="-4" r="25" fill="#cdd5e1" stroke="#5e769f"/><circle cx="-4" cy="-4" r="18" fill="#8396b5" stroke="#456190"/><circle cx="-4" cy="-4" r="4" fill="#dee3ec"/></g><g transform="translate(222 201)"><circle r="29" fill="#1b3e77"/><circle cx="-4" cy="-4" r="26" fill="#cdd5e1" stroke="#5e769f"/><circle cx="-4" cy="-4" r="19" fill="#8396b5" stroke="#456190"/><circle cx="-4" cy="-4" r="4" fill="#dee3ec"/></g><g transform="translate(375 133)"><circle r="23" fill="#1b3e77"/><circle cx="-4" cy="-4" r="20" fill="#cdd5e1" stroke="#5e769f"/><circle cx="-4" cy="-4" r="13" fill="#8396b5" stroke="#456190"/><circle cx="-4" cy="-4" r="4" fill="#dee3ec"/></g><g transform="translate(433 206)"><circle r="18" fill="#1b3e77"/><circle cx="-4" cy="-4" r="15" fill="#cdd5e1" stroke="#5e769f"/><circle cx="-4" cy="-4" r="8" fill="#8396b5" stroke="#456190"/><circle cx="-4" cy="-4" r="4" fill="#dee3ec"/></g>
  <g transform="translate(435 213) rotate(-37)">
    <path d="M-15 0h30v34h-30Z" fill="#24467d" stroke="#042a69"/>
    <path d="M-15 0h8v34h-8Z" fill="#5f78a0"/>
    <path d="M-11 32v26l12 8M11 32v26L0 66" fill="none" stroke="#1a3d77" stroke-width="7"/>
    <path d="M-11 35v19M11 35v19" stroke="#93a3be" stroke-width="2"/>
  </g>
  <g fill="none" stroke="#002767">
    <ellipse cx="484" cy="366" rx="46" ry="22" stroke-dasharray="3 5"/>
    <ellipse cx="484" cy="366" rx="23" ry="11"/>
    <path d="M484 340v52m-53-26h106" stroke-width=".8"/>
    <path d="M476 265c55 51 42 72 8 101" stroke-width="1.4" stroke-dasharray="5 5"/>
    <circle cx="484" cy="366" r="3" fill="#002767"/>
    <path d="M254 199a35 35 0 0 1-7 26M324 310a34 34 0 0 1 23 17"/>
  </g>
  <g fill="#526d98" font-family="Georgia,serif" font-style="italic" font-size="17">
    <text x="260" y="213">θ₂</text><text x="349" y="321">θ₁</text><text x="538" y="360">x*</text>
    <text x="286" y="62">z</text><text x="565" y="435">x</text><text x="91" y="463">y</text>
  </g>
  <g stroke="#b8c3d5" fill="none" stroke-width="1"><path d="M98 99h30m-15-15v30M592 441h30m-15-15v30"/><path d="M507 137h82v23M162 318H97v34"/></g>
</svg>